<svg width="1027" height="414" viewBox="0 0 1027 414" fill="none" xmlns="http://www.w3.org/2000/svg">
<path d="M45.6991 410.479L32.8682 152.223V410.479H0V58.0399H42.5353L58.53 318.408L74.5247 58.0399H117.06V410.479H84.1919V152.575L71.3609 410.479H45.6991Z" fill="#9B9B9B"/>
<path d="M146.061 58.0399H179.808V410.479H146.061V58.0399Z" fill="#9B9B9B"/>
<path d="M208.81 410.479V58.0399H242.557V378.791H282.104V410.479H208.81Z" fill="#9B9B9B"/>
<path d="M302.493 58.0399H336.24V410.479H302.493V58.0399Z" fill="#9B9B9B"/>
<path d="M443.809 374.038C443.809 400.562 430.392 413.883 403.558 414C376.842 414 363.484 400.679 363.484 374.038V94.4809C363.484 67.957 376.842 54.6951 403.558 54.6951C430.392 54.6951 443.809 67.957 443.809 94.4809V374.038ZM410.062 94.4809C410.062 89.0823 407.953 86.3829 403.734 86.3829H403.558C399.34 86.3829 397.231 89.0823 397.231 94.4809V374.038C397.231 379.554 399.34 382.312 403.558 382.312C407.894 382.312 410.062 379.554 410.062 374.038V94.4809Z" fill="#9B9B9B"/>
<path d="M517.982 58.0399H550.674V410.479H524.837L502.163 238.132V410.479H470.349V58.0399H496.363L517.982 228.626V58.0399Z" fill="#9B9B9B"/>
<path d="M609.556 323.514L604.107 410.479H570.185L578.445 284.608L596.374 58.0399H638.557L656.486 284.256L664.747 410.479H630.824L625.375 323.514H609.556ZM623.617 291.826L617.466 123.528L611.314 291.826H623.617ZM622.914 55.3993H600.065L616.411 26H646.818L622.914 55.3993Z" fill="#9B9B9B"/>
<path d="M708.688 89.5517V218.064H709.918C712.848 218.064 714.664 217.946 715.367 217.711C718.062 216.655 719.41 214.073 719.41 209.966V97.8258C719.41 92.3097 717.301 89.5517 713.082 89.5517H708.688ZM736.635 243.238L761.945 410.479H725.913L710.621 249.751H708.688V410.479H674.941V58.0399H715.543C740.619 58.0399 753.157 71.3019 753.157 97.8258V209.966C753.157 226.279 747.649 237.37 736.635 243.238Z" fill="#9B9B9B"/>
<path d="M780.576 58.0399H814.323V410.479H780.576V58.0399Z" fill="#9B9B9B"/>
<path d="M921.892 374.038C921.892 400.562 908.475 413.883 881.642 414C854.925 414 841.567 400.679 841.567 374.038V94.4809C841.567 67.957 854.925 54.6951 881.642 54.6951C908.475 54.6951 921.892 67.957 921.892 94.4809V374.038ZM888.145 94.4809C888.145 89.0823 886.036 86.3829 881.817 86.3829H881.642C877.423 86.3829 875.314 89.0823 875.314 94.4809V374.038C875.314 379.554 877.423 382.312 881.642 382.312C885.977 382.312 888.145 379.554 888.145 374.038V94.4809Z" fill="#9B9B9B"/>
<path d="M980.422 289.889V374.038C980.422 379.554 982.59 382.312 986.925 382.312C991.144 382.312 993.253 379.554 993.253 374.038V269.82C993.253 262.544 986.047 253.683 971.634 243.238C954.995 231.502 946.675 217.125 946.675 200.107V94.3049C946.675 67.781 960.033 54.5191 986.75 54.5191C1013.58 54.5191 1027 67.781 1027 94.3049V178.806H993.253V94.3049C993.253 88.9062 991.144 86.2069 986.925 86.2069H986.75C982.531 86.2069 980.422 88.9062 980.422 94.3049V199.579C980.422 206.269 987.628 214.836 1002.04 225.281C1018.68 237.018 1027 251.16 1027 267.708V374.038C1027 400.679 1013.64 414 986.925 414C960.092 413.883 946.675 400.562 946.675 374.038V289.889H980.422Z" fill="#9B9B9B"/>
<path d="M10.4064 15.8125C11.6066 15.8125 12.6568 15.6674 13.5569 15.3771C14.4571 15.0715 15.2072 14.6514 15.8073 14.1167C16.4074 13.5819 16.8574 12.9479 17.1575 12.2146C17.4575 11.466 17.6076 10.641 17.6076 9.73958C17.6076 7.93681 17.0225 6.56181 15.8523 5.61458C14.6821 4.66736 12.9118 4.19375 10.5415 4.19375H6.26581V15.8125H10.4064ZM25.6638 33H20.9606C20.0304 33 19.3553 32.6333 18.9353 31.9L11.3741 20.7854C11.1191 20.4035 10.8415 20.1285 10.5415 19.9604C10.2414 19.7924 9.79136 19.7083 9.19126 19.7083H6.26581V33H1V0H10.5415C12.6718 0 14.5021 0.221528 16.0323 0.664584C17.5776 1.10764 18.8452 1.74167 19.8354 2.56667C20.8256 3.37639 21.5532 4.35417 22.0182 5.5C22.4983 6.64583 22.7383 7.92153 22.7383 9.32708C22.7383 10.4729 22.5658 11.5424 22.2208 12.5354C21.8907 13.5285 21.4031 14.4299 20.758 15.2396C20.1279 16.0493 19.3478 16.7521 18.4177 17.3479C17.4875 17.9438 16.4299 18.4097 15.2447 18.7458C15.8898 19.1431 16.4449 19.7007 16.91 20.4188L25.6638 33Z" fill="#9B9B9B"/>
<path d="M67.5772 28.6688L67.5547 33H47.3466V0H67.5547V4.33125H52.6349V14.2771H64.5617V18.4708H52.6349V28.6688H67.5772Z" fill="#9B9B9B"/>
<path d="M119.5 16.5C119.5 18.9444 119.11 21.1826 118.33 23.2146C117.55 25.2312 116.447 26.9653 115.022 28.4167C113.612 29.8681 111.909 30.9986 109.914 31.8083C107.934 32.6028 105.728 33 103.298 33H91.0561V0H103.298C105.728 0 107.934 0.404861 109.914 1.21458C111.909 2.00903 113.612 3.13194 115.022 4.58333C116.447 6.03472 117.55 7.77639 118.33 9.80833C119.11 11.825 119.5 14.0556 119.5 16.5ZM114.122 16.5C114.122 14.6056 113.867 12.9021 113.357 11.3896C112.862 9.87708 112.142 8.60139 111.197 7.5625C110.267 6.52361 109.134 5.72917 107.799 5.17917C106.463 4.61389 104.963 4.33125 103.298 4.33125H96.3444V28.6688H103.298C104.963 28.6688 106.463 28.3937 107.799 27.8438C109.134 27.2938 110.267 26.4993 111.197 25.4604C112.142 24.4062 112.862 23.1306 113.357 21.6333C113.867 20.1208 114.122 18.4097 114.122 16.5Z" fill="#9B9B9B"/>
<path d="M163.303 28.6688L163.281 33H143.072V0H163.281V4.33125H148.361V14.2771H160.288V18.4708H148.361V28.6688H163.303Z" fill="#9B9B9B"/>
<path d="M273.197 16.5C273.197 18.9444 272.807 21.1826 272.027 23.2146C271.247 25.2312 270.144 26.9653 268.719 28.4167C267.309 29.8681 265.606 30.9986 263.611 31.8083C261.631 32.6028 259.425 33 256.995 33H244.753V0H256.995C259.425 0 261.631 0.404861 263.611 1.21458C265.606 2.00903 267.309 3.13194 268.719 4.58333C270.144 6.03472 271.247 7.77639 272.027 9.80833C272.807 11.825 273.197 14.0556 273.197 16.5ZM267.819 16.5C267.819 14.6056 267.564 12.9021 267.054 11.3896C266.559 9.87708 265.839 8.60139 264.894 7.5625C263.963 6.52361 262.831 5.72917 261.496 5.17917C260.16 4.61389 258.66 4.33125 256.995 4.33125H250.041V28.6688H256.995C258.66 28.6688 260.16 28.3937 261.496 27.8438C262.831 27.2938 263.963 26.4993 264.894 25.4604C265.839 24.4062 266.559 23.1306 267.054 21.6333C267.564 20.1208 267.819 18.4097 267.819 16.5Z" fill="#9B9B9B"/>
<path d="M317 28.6688L316.977 33H296.769V0H316.977V4.33125H302.058V14.2771H313.985V18.4708H302.058V28.6688H317Z" fill="#9B9B9B"/>
</svg>
